<svg xmlns="http://www.w3.org/2000/svg" width="200" height="200" viewBox="0 0 200 200" version="1.1">
   <path class="drawing"
      d="m 102.02541,187.88837 c -6.664199,-0.55346 -13.573313,0.82872 -20.203054,0 -6.291306,-0.78641 -12.589356,-3.57496 -18.182746,-6.06091 -4.49399,-1.99733 -8.493835,-2.35401 -13.131983,-4.04061 -5.927027,-2.15528 -11.757048,-5.99678 -17.172593,-9.09137 -1.961161,-1.12067 -4.463724,-1.43327 -6.060915,-3.03046 -8.190476,-8.19048 -10.87319,-28.10198 -13.131983,-39.39595 0.750306,-1.86951 -1.725855,-1.85266 -2.020305,-3.03046 -0.40833,-1.63332 0.532397,-3.45357 0,-5.05076 -1.794835,-5.3845 -4.1013884,-11.47635 -5.0507632,-17.1726 -0.9749921,-5.849948 -0.7630831,-32.055933 1.0101526,-37.37564 0.383917,-1.151751 1.5420664,-1.914567 2.0203046,-3.030457 3.096271,-7.224632 -1.6557233,-0.890556 3.030458,-9.091373 1.109712,-1.941997 4.737899,-7.768357 6.060915,-9.091373 1.190477,-1.190476 2.850134,-1.839982 4.040611,-3.030458 3.789599,-3.789599 0.639108,-1.862297 3.030457,-5.050762 3.821614,-5.095485 22.320694,-16.63708 28.284271,-19.192899 3.535733,-1.515314 6.689579,-3.344789 10.101526,-5.050763 8.747521,-4.3737603 26.58769,-4.0406097 36.365487,-4.0406097 3.7039,0 7.46753,-0.6625725 11.11168,0 0.70553,0.1282779 10.658,2.2985433 12.12183,3.0304576 4.14968,2.0748381 8.62572,4.7090351 13.13199,6.0609151 4.23481,1.270446 15.01991,2.898082 18.18274,6.060915 0.96005,0.960046 3.04964,4.739622 4.04061,6.060916 2.14762,2.863485 5.17401,5.045932 7.07107,8.08122 1.75763,2.812202 2.55752,6.125199 4.04061,9.091373 3.51255,7.025097 6.67292,13.957853 9.09137,21.213203 4.20927,12.627795 -0.19832,-5.74491 4.04061,9.091373 1.28231,4.488077 1.25328,9.539954 2.02031,14.142136 0.45604,2.736246 1.56426,5.344974 2.0203,8.08122 0.76463,4.587736 -0.65802,9.535976 0,14.142136 0.50534,3.53733 2.6534,18.93687 1.01016,22.22336 -0.42592,0.85183 -1.44888,1.2584 -2.02031,2.0203 -1.32716,1.76954 -1.64963,4.33488 -3.03046,6.06092 -3.9488,4.936 -8.80366,11.59331 -14.14213,15.15228 -17.21552,11.47702 -36.00871,16.12677 -56.56854,18.18275 -5.61509,0.56151 -4.02959,1.17667 -9.09138,2.02031 -8.02816,1.33802 -20.866485,0.76136 -28.284269,-2.02031 -7.69616,-2.88606 -18.12284,-7.32791 -23.233509,-14.14214 C 40.877339,145.08013 30.96865,110.1628 34.345187,89.903577 c 0.726425,-4.358553 4.311234,-9.049396 6.060915,-13.131984 1.385084,-3.231863 2.537886,-7.588649 5.050763,-10.101525 4.780929,-4.780929 10.407533,-9.397381 15.152288,-14.142136 0.238095,-0.238095 -0.30117,-0.859568 0,-1.010152 0.602338,-0.301169 1.395036,0.250107 2.020305,0 2.799511,-1.119805 5.259433,-3.992593 8.08122,-5.050763 1.607611,-0.602854 3.421941,-0.467212 5.050763,-1.010152 1.217851,-0.405951 7.850553,-3.764873 9.091373,-4.040611 9.747256,-2.166057 18.398766,-3.030457 28.284276,-3.030457 1.89766,0 6.45933,-0.648755 8.08122,0 1.35262,0.541051 4.70867,3.229266 6.06091,4.04061 4.21646,2.529875 11.01484,5.322918 15.15229,8.08122 3.05098,2.033986 2.68604,5.297524 5.05076,7.071068 0.85184,0.638877 2.27754,0.257229 3.03046,1.010153 0.75292,0.752923 0.46232,2.117404 1.01015,3.030457 0.49,0.81666 1.49202,1.227877 2.02031,2.020305 3.71475,5.572136 4.79354,12.856058 6.06091,19.192899 0.6155,3.077513 2.58704,5.987412 3.03046,9.091373 0.42444,2.971067 -0.33158,6.107123 0,9.091368 0.88266,7.94394 3.0258,21.72994 0,29.29443 -1.16749,2.91873 -3.81252,7.85313 -6.06092,10.10152 -0.85846,0.85847 -2.17199,1.16184 -3.03045,2.02031 -0.85847,0.85846 -1.04907,2.30203 -2.02031,3.03046 -0.53875,0.40406 -1.45997,-0.37356 -2.0203,0 -0.62647,0.41764 -0.38369,1.60265 -1.01016,2.0203 -0.90045,0.6003 -3.92958,0.761 -5.05076,1.01015 -4.15775,0.92395 -7.93135,3.27871 -12.12183,4.04061 -1.98772,0.36141 -4.05064,-0.20102 -6.06091,0 -4.00009,0.40001 -3.5469,1.23716 -7.07107,2.02031 -5.7251,1.27224 -10.80098,1.2433 -16.16244,3.03046 -4.755734,1.58524 -6.880906,-3.11839 -10.101528,-5.05077 -0.913054,-0.54783 -2.21246,-0.32848 -3.030458,-1.01015 -7.114896,-5.92908 -14.244221,-21.67258 -16.162441,-30.30457 -0.799358,-3.59712 -0.327265,-6.68709 -1.010152,-10.10153 -0.79905,-3.99525 -2.479725,-14.508816 -1.010153,-18.182746 1.62701,-4.067525 4.433263,-5.794116 7.071068,-9.091373 4.388314,-5.485392 8.360774,-6.827535 15.152288,-9.091373 3.51612,-1.17204 11.533696,-2.21635 15.152286,-1.010152 0.90351,0.301169 1.16847,1.594387 2.02031,2.020305 10.89825,5.449128 16.16244,20.771552 16.16244,32.324879 0,5.29404 -0.0987,8.32806 -2.02031,13.13199 -2.93866,7.34665 -6.24258,6.7949 -13.13198,9.09137 -5.23432,1.74477 -6.45324,1.95492 -12.121831,1.01015 -0.996408,-0.16607 -2.072142,0.31944 -3.030457,0 -0.319438,-0.10648 0.280166,-0.82337 0,-1.01015 -0.885963,-0.59064 -2.277535,-0.25723 -3.030458,-1.01015 -0.752923,-0.75293 -0.371276,-2.17863 -1.010152,-3.03046 -0.451754,-0.60234 -1.568552,-0.40782 -2.020305,-1.01015 -2.143771,-2.85836 -0.125832,-3.40796 -1.010153,-6.06092 -1.012182,-3.03655 -2.19731,-9.57051 -1.010153,-13.13198 1.72658,-5.17974 10.314432,-9.091376 15.152289,-9.091376" />
</svg>